<?xml version="1.0" encoding="utf-8"?>
<!-- Generator: Adobe Illustrator 24.1.2, SVG Export Plug-In . SVG Version: 6.00 Build 0)  -->
<svg version="1.1" id="Layer_1" xmlns="http://www.w3.org/2000/svg" xmlns:xlink="http://www.w3.org/1999/xlink" x="0px" y="0px"
	 viewBox="0 0 51.1 44.2" style="enable-background:new 0 0 51.1 44.2;" xml:space="preserve">
<style type="text/css">
	.st0{fill:#FFE4B8;stroke:#000000;stroke-width:1.2554;stroke-miterlimit:10;}
	.st1{fill:#4E9BD4;}
	.st2{fill:#EE3C7A;}
	.st3{fill:#FFFFFF;}
	.st4{fill:#F05F88;}
	.st5{fill:#3769A5;}
	.st6{fill:#FAAF1A;}
	.st7{fill:#FBD20A;}
	.st8{fill:#F05225;}
	.st9{fill:#F16723;}
	.st10{fill:#FFFFFF;stroke:#000000;stroke-width:0.1046;stroke-miterlimit:10;}
	.st11{fill:none;stroke:#000000;stroke-width:0.8047;stroke-miterlimit:10;}
	.st12{fill:#C1C1C0;stroke:#000000;stroke-width:0.1046;stroke-miterlimit:10;}
	.st13{fill:#FFF400;stroke:#000000;stroke-width:0.1046;stroke-miterlimit:10;}
	.st14{fill:none;stroke:#000000;stroke-width:0.8369;stroke-miterlimit:10;}
</style>
<g>
	<g>
		<path class="st0" d="M40.1,30.6C40.1,30.6,40.1,30.6,40.1,30.6c-4.7,0-8.5-3.8-8.5-8.5s3.8-8.5,8.5-8.5c0,0,0,0,0,0
			c0.8,0,1.4-0.9,1-1.6C37.5,5.2,30.3,0.6,22,0.7C10.2,0.7,0.6,10.3,0.6,22.1c0,11.9,9.6,21.5,21.5,21.5c8.2,0,15.3-4.6,19-11.4
			C41.5,31.5,40.9,30.6,40.1,30.6z M26.7,37.4c-1.7,0-3.1-1.4-3.1-3.1c0-1.7,1.4-3.1,3.1-3.1s3.1,1.4,3.1,3.1
			C29.8,36.1,28.4,37.4,26.7,37.4z"/>
		<path class="st1" d="M7.1,3.2"/>
		<ellipse class="st2" cx="15.7" cy="11.4" rx="3.1" ry="4.4"/>
		<ellipse class="st3" cx="13.4" cy="11.4" rx="3.1" ry="4.4"/>
		<ellipse transform="matrix(0.9864 -0.1643 0.1643 0.9864 -1.6847 2.5112)" class="st4" cx="14.3" cy="11.4" rx="4.1" ry="4.4"/>
		<g>
			<ellipse class="st5" cx="28.3" cy="9.1" rx="3.1" ry="4.4"/>
			<ellipse class="st3" cx="26" cy="9.1" rx="3.1" ry="4.4"/>
			<ellipse class="st1" cx="27.3" cy="9.1" rx="3.9" ry="4.4"/>
		</g>
		<g>
			<ellipse class="st6" cx="10.1" cy="22.9" rx="3.1" ry="4.4"/>
			<ellipse class="st3" cx="7.8" cy="22.9" rx="3.1" ry="4.4"/>
			<ellipse class="st7" cx="8.8" cy="22.9" rx="4" ry="4.4"/>
		</g>
		<g>
			<ellipse class="st8" cx="15.6" cy="33.6" rx="3.1" ry="4.4"/>
			<ellipse class="st3" cx="13.3" cy="33.6" rx="3.1" ry="4.4"/>
			<ellipse class="st9" cx="14.4" cy="33.6" rx="3.8" ry="4.4"/>
		</g>
		<path d="M14.4,16.5c-2.8,0-5-2.3-5-5s2.3-5,5-5s5,2.3,5,5S17.2,16.5,14.4,16.5z M14.4,7.7c-2.1,0-3.8,1.7-3.8,3.8s1.7,3.8,3.8,3.8
			c2.1,0,3.8-1.7,3.8-3.8C18.2,9.4,16.5,7.7,14.4,7.7z"/>
		<path d="M27.1,14.2c-2.8,0-5-2.3-5-5s2.3-5,5-5s5,2.3,5,5S29.9,14.2,27.1,14.2z M27.1,5.4c-2.1,0-3.8,1.7-3.8,3.8s1.7,3.8,3.8,3.8
			s3.8-1.7,3.8-3.8S29.2,5.4,27.1,5.4z"/>
		<path d="M9,28c-2.8,0-5-2.3-5-5s2.3-5,5-5s5,2.3,5,5S11.7,28,9,28z M9,19.2c-2.1,0-3.8,1.7-3.8,3.8c0,2.1,1.7,3.8,3.8,3.8
			s3.8-1.7,3.8-3.8S11,19.2,9,19.2z"/>
		<path d="M14.4,38.6c-2.8,0-5-2.3-5-5c0-2.8,2.3-5,5-5s5,2.3,5,5C19.5,36.4,17.2,38.6,14.4,38.6z M14.4,29.8
			c-2.1,0-3.8,1.7-3.8,3.8c0,2.1,1.7,3.8,3.8,3.8c2.1,0,3.8-1.7,3.8-3.8C18.2,31.5,16.5,29.8,14.4,29.8z"/>
	</g>
	<g>
		<path class="st10" d="M48.5,18.5h-4.4v22.9c0,1.1,0.9,2,2,2h0.4c1.1,0,2-0.9,2-2L48.5,18.5L48.5,18.5z"/>
		<path class="st11" d="M48.5,18.5h-4.4v22.9c0,1.1,0.9,2,2,2h0.4c1.1,0,2-0.9,2-2L48.5,18.5L48.5,18.5z"/>
		<polygon class="st12" points="49.5,8.9 43.1,8.9 44.3,18.5 48.3,18.5 		"/>
		<polygon class="st11" points="49.5,8.9 43.1,8.9 44.3,18.5 48.3,18.5 		"/>
		<path class="st13" d="M46.3,0.8L46.3,0.8C44.5,0.8,42,2.2,42,4l1.2,4.9h6.4L50.6,4C50.6,2.2,48.1,0.8,46.3,0.8z"/>
		<path class="st14" d="M46.3,0.8L46.3,0.8C44.5,0.8,42,2.2,42,4l1.2,4.9h6.4L50.6,4C50.6,2.2,48.1,0.8,46.3,0.8z"/>
		<line class="st11" x1="45.3" y1="0.8" x2="45.3" y2="4.4"/>
		<line class="st11" x1="47.3" y1="0.8" x2="47.3" y2="4.4"/>
		<line class="st11" x1="48.9" y1="1.6" x2="48.9" y2="4.4"/>
		<line class="st11" x1="43.7" y1="1.6" x2="43.7" y2="4.4"/>
	</g>
</g>
</svg>
