<?xml version="1.0" encoding="utf-8"?>
<!-- Generator: Adobe Illustrator 24.1.2, SVG Export Plug-In . SVG Version: 6.00 Build 0)  -->
<svg version="1.1" id="Layer_1" xmlns="http://www.w3.org/2000/svg" xmlns:xlink="http://www.w3.org/1999/xlink" x="0px" y="0px"
	 viewBox="0 0 50 50" style="enable-background:new 0 0 50 50;" xml:space="preserve">
<style type="text/css">
	.st0{fill:#EF473B;}
	.st1{opacity:0.1;fill:#010101;enable-background:new    ;}
	.st2{fill:#FFFFFF;}
	.st3{opacity:0.2;fill:#FFFFFF;enable-background:new    ;}
	.st4{fill:url(#SVGID_1_);}
	.st5{fill:url(#SVGID_2_);}
</style>
<g>
	<path class="st0" d="M49.1,22.8C49.1,22.8,49.1,22.8,49.1,22.8L27.2,0.9c-1.2-1.2-3.2-1.2-4.4,0L0.9,22.8C0.3,23.4,0,24.2,0,25
		c0,0.8,0.3,1.6,0.9,2.2l21.9,21.9c0.6,0.6,1.4,0.9,2.2,0.9s1.6-0.3,2.2-0.9l21.9-21.9c0.6-0.6,0.9-1.4,0.9-2.2
		C50,24.2,49.7,23.4,49.1,22.8z"/>
	<path class="st1" d="M49.3,26.4L27.2,48.6c-0.6,0.6-1.4,0.9-2.2,0.9s-1.6-0.3-2.2-0.9L0.7,26.4c-0.3-0.3-0.5-0.6-0.6-0.9
		c0.1,0.6,0.4,1.2,0.9,1.6l21.9,21.9c0.6,0.6,1.4,0.9,2.2,0.9s1.6-0.3,2.2-0.9l21.9-21.9c0.5-0.5,0.7-1,0.9-1.6
		C49.8,25.9,49.6,26.2,49.3,26.4z"/>
	<path class="st2" d="M35.4,20.8c-0.8,0-1.5,0.2-2.1,0.6l-4.7-4.7c0.4-0.6,0.6-1.3,0.6-2.1c0-2.3-1.9-4.2-4.2-4.2
		c-0.8,0-1.5,0.2-2.1,0.6l-5.1-5.1l-1.5,1.5l5.1,5.1c-0.4,0.6-0.6,1.3-0.6,2.1c0,1.9,1.3,3.6,3.1,4v12.8c-1.8,0.5-3.1,2.1-3.1,4
		c0,2.3,1.9,4.2,4.2,4.2s4.2-1.9,4.2-4.2c0-1.9-1.3-3.6-3.1-4V18.6c0.4-0.1,0.7-0.2,1-0.4l4.7,4.7c-0.4,0.6-0.6,1.3-0.6,2.1
		c0,2.3,1.9,4.2,4.2,4.2c2.3,0,4.2-1.9,4.2-4.2S37.7,20.8,35.4,20.8z"/>
	<path class="st3" d="M0.9,23.3L22.8,1.4c1.2-1.2,3.2-1.2,4.4,0l21.9,21.9c0,0,0,0,0,0c0.5,0.5,0.8,1.2,0.9,1.9c0-0.1,0-0.2,0-0.3
		c0-0.8-0.3-1.6-0.9-2.2c0,0,0,0,0,0L27.2,0.9c-1.2-1.2-3.2-1.2-4.4,0L0.9,22.8C0.3,23.4,0,24.2,0,25c0,0.1,0,0.2,0,0.3
		C0.1,24.5,0.4,23.8,0.9,23.3z"/>
	
		<linearGradient id="SVGID_1_" gradientUnits="userSpaceOnUse" x1="20.1443" y1="31.8415" x2="38.1387" y2="13.8471" gradientTransform="matrix(1 0 0 -1 0 52)">
		<stop  offset="0" style="stop-color:#010101;stop-opacity:0.1"/>
		<stop  offset="1" style="stop-color:#010101;stop-opacity:0"/>
	</linearGradient>
	<path class="st4" d="M38.6,22.4c0.6,0.7,0.9,1.6,0.9,2.6c0,2.3-1.9,4.2-4.2,4.2c-2.3,0-4.2-1.9-4.2-4.2c0-0.8,0.2-1.5,0.6-2.1
		l-4.7-4.7c-0.3,0.2-0.7,0.3-1,0.4v12.8c1.8,0.5,3.1,2.1,3.1,4c0,2.3-1.9,4.2-4.2,4.2c-1.1,0-2-0.4-2.8-1.1l7.8,7.8L46.3,30
		L38.6,22.4z M28.6,16.7l4.7,4.7c0.6-0.4,1.3-0.6,2.1-0.6c1,0,1.9,0.4,2.6,0.9L28.3,12l0,0c0.6,0.7,0.9,1.6,0.9,2.6
		C29.2,15.4,28.9,16.1,28.6,16.7z"/>
	
		<linearGradient id="SVGID_2_" gradientUnits="userSpaceOnUse" x1="4.1955" y1="36.7085" x2="45.7987" y2="17.3086" gradientTransform="matrix(1 0 0 -1 0 52)">
		<stop  offset="0" style="stop-color:#FFFFFF;stop-opacity:0.2"/>
		<stop  offset="1" style="stop-color:#FFFFFF;stop-opacity:0"/>
	</linearGradient>
	<path class="st5" d="M49.1,22.8C49.1,22.8,49.1,22.8,49.1,22.8L27.2,0.9c-1.2-1.2-3.2-1.2-4.4,0L0.9,22.8C0.3,23.4,0,24.2,0,25
		c0,0.8,0.3,1.6,0.9,2.2l21.9,21.9c0.6,0.6,1.4,0.9,2.2,0.9s1.6-0.3,2.2-0.9l21.9-21.9c0.6-0.6,0.9-1.4,0.9-2.2
		C50,24.2,49.7,23.4,49.1,22.8z"/>
</g>
</svg>
