<?xml version="1.0" encoding="utf-8"?>
<!-- Generator: Adobe Illustrator 24.1.2, SVG Export Plug-In . SVG Version: 6.00 Build 0)  -->
<svg version="1.1" id="Слой_1" xmlns="http://www.w3.org/2000/svg" xmlns:xlink="http://www.w3.org/1999/xlink" x="0px" y="0px"
	 viewBox="0 0 22.5 50" style="enable-background:new 0 0 22.5 50;" xml:space="preserve">
<style type="text/css">
	.st0{fill:#FFFFFF;}
</style>
<path class="st0" d="M17.8,40.5l1.3-2.3c0,0-3,1.2-8,1.2s-8-1.2-8-1.2l1.5,2.5l0.5,7.8c0,0.8,2.7,1.5,6.1,1.5s6.1-0.7,6.1-1.5
	L17.8,40.5L17.8,40.5L17.8,40.5z M19.1,25.8c-1.6,0.1-2.4,1.9-3.2,3.8c-0.3,0.7-1.3,3.6-2,3.3c-0.7-0.4,0.9-2.8,1.3-4.2
	c-0.5,0.4-2.3,1.8-2.8,0.4c-0.7,0.7-2.4,1-2.2-0.7c-0.4,0.7-1.3,1.7-2.4,1.3c-1.4-0.5,0.8-5,1.4-4.8c0.6,0.3-0.1,1.2-0.3,1.7
	c-0.4,0.9-0.8,2-0.5,2.2c0.5,0.4,1.9-1.5,1.9-1.5c0.3-0.3,1-2.6,1.6-2.3c0.6,0.3-1.5,3.2-0.7,3.8c0.2,0.1,0.8-0.1,1.2-0.5
	c0.2-0.2,0.2-0.9,1-2.9s1.6-4.5,2.2-4.3c0.6,0.2,0.1,1.5-0.1,2c-1,2.2-2.6,5.9-1.9,5.6c0.8-0.3,1.2-0.3,2-1.2
	c0.8-0.9,0.7-2.4,1.2-2.4s0.4,0.5,0.3,0.9c0.5-0.6,2.4-1.8,2.8-0.6c0.5,1.4-2.7,3.5-1.9,3.4c0.8-0.1,2.1-0.9,2.6-1.7l1.5-13.5
	c0,0-1.5,1.2-11.2,1.2S0,13.6,0,13.6L1.3,26c0.7-2,2.3-5.9,4.8-5.7c1.2,0.1,2.7,2.3,1.4,2.4c-0.6,0-0.6-1.1-1.3-1.3
	c-0.5-0.1-1.2,0.3-1.6,0.7c-0.8,0.8-2.7,4.2-2.5,5.8C2.4,30,5,27.2,5.5,26.3c0.3-0.6,0.5-2.4,1.2-2.2c0.7,0.2-0.1,2-0.6,3.6
	c-0.6,1.8-0.8,3.7-1.5,3.5s0.4-2.6,0.4-3c-0.7,0.6-1.8,2.1-3.4,1.4l0.8,7.7c0,0,2.1,1.7,8.5,1.7s8.6-1.7,8.6-1.7l1-8.9
	c-0.8,0.8-3.4,2.2-3.5,0.6c-0.1-1.3,2.8-3.1,2-3.2C19,25.9,19.1,25.8,19.1,25.8z M22.4,1.4l-5.5,5.8l-1,4c3.9,0.2,6.6,0.8,6.6,1.4
	c0,0.9-5,1.6-11.2,1.6S0,13.5,0,12.6C0,11.7,5,11,11.2,11c0.9,0,1.8,0,2.6,0L15,6.3l5.9-6.2c0.1-0.2,0.6,0,1,0.3
	C22.3,0.7,22.5,1.1,22.4,1.4L22.4,1.4L22.4,1.4z M14.4,13.5c0,0-1.1,0-1.3-0.2c0-0.1-0.1-0.1-0.1-0.2c0-0.1,0.1-0.2,0.2-0.2l0.1,0.2
	h-0.1c0,0.1,0.7,0.1,1.2,0.1s1.1,0,1.1-0.1c0,0,0,0-0.1-0.1l0.1-0.1c0.1,0,0.2,0.1,0.2,0.3s-0.3,0.3-0.5,0.3
	C15,13.4,14.4,13.5,14.4,13.5L14.4,13.5z"/>
</svg>
