<svg xmlns="http://www.w3.org/2000/svg" viewBox="0 0 50 21.4" style="enable-background:new 0 0 50 21.4" xml:space="preserve">
  <path d="M47.9 7.8c0-1.6.3-2.5.3-4.3C48.2.8 47.2 0 45 0h-1.6v1.9h.5c1.1 0 1.4.4 1.4 1.7l-.1 4c0 1.9.6 2.6 1.8 2.9v.1c-1.2.3-1.8 1-1.8 2.9l.1 4c0 1.4-.3 1.8-1.4 1.8h-.5v2H45c2.2 0 3.2-.9 3.2-3.5 0-1.8-.3-2.7-.3-4.3 0-.9.5-1.8 2.1-1.8V9.6c-1.6 0-2.1-.9-2.1-1.8zm-8.3 2.5c-1.2-.5-2.4-.8-2.4-1.6 0-.6.5-1 1.4-1 .9 0 1.7.4 2.6 1l1.6-2.2c-1-.8-2.4-1.6-4.3-1.6-2.8 0-4.7 1.6-4.7 3.9 0 2 1.8 3 3.2 3.6 1.3.5 2.5.9 2.5 1.7 0 .6-.5 1-1.6 1-1 0-2.1-.4-3.2-1.3l-1.6 2.4a8 8 0 0 0 4.7 1.7c3.3 0 5-1.7 5-4s-1.6-3.1-3.2-3.6zm-28 4.6c-.3 0-.7-.3-.7-1V0H5.1C2.9 0 1.9.9 1.9 3.5c0 1.8.3 2.8.3 4.3 0 .9-.5 1.8-2.1 1.8v2.1c1.6 0 2.1.9 2.1 1.8 0 1.5-.3 2.4-.3 4.2 0 2.7 1 3.5 3.2 3.5h1.6v-1.9h-.5c-1 0-1.4-.4-1.4-1.8l.1-4c0-1.9-.6-2.6-1.8-2.9v-.1c1.2-.3 1.8-1 1.8-2.9l-.1-4c0-1.3.3-1.7 1.4-1.7h1.1v11.8c0 2.5.9 4.1 3.4 4.1.8 0 1.4-.1 1.8-.3l-.4-2.7-.5.1zm18.1-4.6c-1.3-.5-2.4-.8-2.4-1.6 0-.6.5-1 1.4-1 .9 0 1.7.4 2.6 1l1.6-2.2c-1-.8-2.4-1.6-4.3-1.6-2.8 0-4.7 1.6-4.7 3.9 0 2 1.8 3 3.2 3.6 1.3.5 2.5.9 2.5 1.7 0 .6-.5 1-1.6 1-1 0-2.1-.4-3.2-1.3l-1.6 2.4a8 8 0 0 0 4.7 1.7c3.3 0 5-1.7 5-4 .1-2.1-1.6-3.1-3.2-3.6zM17.6 4.9c-3 0-5.9 2.5-5.8 6.4 0 4.1 2.7 6.4 6.2 6.4a8 8 0 0 0 4.4-1.4l-1.2-2.2c-.9.5-1.8.8-2.7.8-1.6 0-2.9-.8-3.2-2.7h7.4l.1-1.5c0-3.2-1.8-5.8-5.2-5.8zm-2.4 5.2c.3-1.6 1.2-2.4 2.4-2.4 1.5 0 2.1 1 2.1 2.4h-4.5z" style="fill:#fff"/>
</svg>
