<svg viewBox="0 0 512 512" width="512" xml:space="preserve" xmlns="http://www.w3.org/2000/svg">
  <path  d="M17.4 166.28h106.72v328.97H17.4zM414.79 170.14c-1.13-.36-2.2-.74-3.4-1.08-1.44-.33-2.86-.6-4.33-.83a95.2 95.2 0 0 0-19.14-1.95c-62.21 0-101.68 45.37-114.68 62.9v-62.9H166.53v328.97h106.71V315.81s80.65-112.63 114.68-29.9v209.34H494.6v-222c0-49.7-33.97-91.12-79.81-103.11zM121.79 69.08c0 28.91-23.37 52.34-52.2 52.34-28.82 0-52.2-23.43-52.2-52.34 0-28.9 23.38-52.33 52.2-52.33 28.83 0 52.2 23.43 52.2 52.33zm0 0"/>
</svg>
