<svg xmlns="http://www.w3.org/2000/svg"><path fill="none" stroke="#000000" stroke-linecap="round" stroke-miterlimit="10" stroke-width="2" d="M27.419 7H6.333C4.492 7 3 8.492 3 10.333v33.333C3 45.508 4.492 47 6.333 47h33.333C41.508 47 43 45.508 43 43.667V23.324M6.606 47L29.46 24.146M26.662 19.732L3 43.394M23.104 30.71L39.394 47M43 43.394L26.675 27.069"/><path fill="none" stroke="#000000" stroke-linecap="round" stroke-miterlimit="10" stroke-width="2" d="M36,3c-6.075,0-11,4.925-11,11c0,7.494,7.494,10.187,10.266,20.836C35.457,35.568,35.393,36.1,36,36.1s0.543-0.532,0.734-1.264C39.506,24.187,47,21.494,47,14C47,7.925,42.075,3,36,3z"/><path fill="none" stroke="#000000" stroke-linecap="round" stroke-miterlimit="10" stroke-width="2" d="M36 11A3 3 0 1 0 36 17A3 3 0 1 0 36 11Z"/><path d="M12.112,15.035v2.335h3.327c-0.435,1.415-1.617,2.427-3.327,2.427c-2.036,0-3.687-1.65-3.687-3.686s1.651-3.686,3.687-3.686c0.916,0,1.751,0.336,2.396,0.888l1.72-1.719C15.142,10.604,13.698,10,12.112,10C8.737,10,6,12.736,6,16.111s2.737,6.111,6.112,6.111c5.344,0,6.263-4.797,5.761-7.179L12.112,15.035z"/></svg>
