<?xml version="1.0" encoding="utf-8"?>
<!-- Generator: Adobe Illustrator 24.1.2, SVG Export Plug-In . SVG Version: 6.00 Build 0)  -->
<svg version="1.1" id="Слой_1" xmlns="http://www.w3.org/2000/svg" xmlns:xlink="http://www.w3.org/1999/xlink" x="0px" y="0px"
	 viewBox="0 0 50 50" style="enable-background:new 0 0 50 50;" xml:space="preserve">
<style type="text/css">
	.st0{fill:#FFFFFF;}
</style>
<path class="st0" d="M0,14.4v16.7h13.9v2.8H25v-2.8h25V14.4H0z M13.9,28.3h-2.8V20H8.3v8.3H2.8V17.2h11.1
	C13.9,17.2,13.9,28.3,13.9,28.3z M22.2,28.3v2.8h-5.6V17.2h11.1v11.1L22.2,28.3L22.2,28.3z M47.2,28.3h-2.8V20h-2.8v8.3h-2.8V20H36
	v8.3h-5.6V17.2h16.7C47.2,17.2,47.2,28.3,47.2,28.3z M22.2,20H25v5.6h-2.8V20z"/>
</svg>
