<svg xmlns="http://www.w3.org/2000/svg" viewBox="0 0 50 50">
  <path fill="none" d="M0 0h50v50H0z"/>
  <path fill="#4fc7ec" d="M9.9 11.8c0-.2 0-.3.2-.3 1.3 0 3.9-.1 6.4-.1 6.7 0 9.2 3.9 9.3 8.5 0 6.3-4.7 8.7-9.7 8.7H14v9c0 .2-.1.3-.2.3h-3.6c-.2 0-.2-.1-.2-.3l-.1-25.8zm4.1 13c.3 0 .8.1 2.2.1 2.7 0 5.3-.8 5.3-4.7 0-3.2-1.7-4.8-4.9-4.8-1.3 0-2.3 0-2.6.1v9.3zM34.3 21.9c-1.6 0-2.1 1-2.1 1.8 0 1 .4 1.5 3 2.7 3.5 1.7 4.9 3.1 4.9 6 0 4-2.6 6.2-6.3 6.2-1.8 0-4-.2-5.4-1.2-.1-.1-.2-.2-.2-.4v-3.6c0-.2.1-.3.2-.2 1.7 1.3 3.7 1.7 5.4 1.7 1.5 0 2.1-1 2.1-1.9 0-1-.4-1.6-2.8-2.8-3.5-1.7-4.9-3.1-4.9-6 0-3.2 2.4-5.9 6.4-5.9 2 0 3.5.1 4.4.7.2.2.2.3.2.5v3.3c0 .2-.1.4-.3.2-1.1-.9-2.8-1.1-4.6-1.1z"/>
</svg>
