<svg xmlns="http://www.w3.org/2000/svg" xmlns:xlink="http://www.w3.org/1999/xlink"><symbol id="git" viewBox="0 0 512 512"><path clip-rule="evenodd" d="M296.133 354.174c49.885-5.891 102.942-24.029 102.942-110.192 0-24.49-8.624-44.448-22.67-59.869 2.266-5.89 9.515-28.114-2.734-58.947 0 0-18.139-5.898-60.759 22.669-18.139-4.983-38.09-8.163-56.682-8.163-19.053 0-39.011 3.18-56.697 8.163-43.082-28.567-61.22-22.669-61.22-22.669-12.241 30.833-4.983 53.057-2.718 58.947-14.061 15.42-22.677 35.379-22.677 59.869 0 86.163 53.057 104.301 102.942 110.192-6.344 5.452-12.241 15.873-14.507 30.387-12.702 5.438-45.808 15.873-65.758-18.592 0 0-11.795-21.31-34.012-22.669 0 0-22.224-.453-1.813 13.592 0 0 14.96 6.812 24.943 32.653 0 0 13.6 43.089 76.179 29.48v38.543c0 5.906-4.53 12.702-15.865 10.89C96.139 438.977 32.2 354.626 32.2 255.77c0-123.807 100.216-224.022 224.03-224.022 123.347 0 224.023 100.216 223.57 224.022 0 98.856-63.946 182.754-152.828 212.688-11.342 2.266-15.873-4.53-15.873-10.89V395.45c.001-20.873-6.811-34.465-14.966-41.276zM512 256.23C512 114.73 397.263 0 256.23 0 114.73 0 0 114.73 0 256.23 0 397.263 114.73 512 256.23 512 397.263 512 512 397.263 512 256.23z" fill="#fff" fill-rule="evenodd" class="fill-0d2636"/></symbol><symbol id="instagram" viewBox="0 0 256 256"><path fill="none" d="M0 0h256v256H0z"/><circle cx="128" cy="128" fill="none" r="40" stroke="#fff" stroke-miterlimit="10" stroke-width="16" class="stroke-000000"/><rect fill="none" height="184" rx="48" stroke="#fff" stroke-linecap="round" stroke-linejoin="round" stroke-width="16" width="184" x="36" y="36" class="stroke-000000"/><circle cx="180" cy="76" r="12" fill="#fff" class="fill-000000"/></symbol><symbol id="linkedin" viewBox="0 0 512 512"><path d="M17.4 166.28h106.72v328.97H17.4zm397.39 3.86c-1.13-.36-2.2-.74-3.4-1.08-1.44-.33-2.86-.6-4.33-.83a95.2 95.2 0 0 0-19.14-1.95c-62.21 0-101.68 45.37-114.68 62.9v-62.9H166.53v328.97h106.71V315.81s80.65-112.63 114.68-29.9v209.34H494.6v-222c0-49.7-33.97-91.12-79.81-103.11zm-293-101.06c0 28.91-23.37 52.34-52.2 52.34-28.82 0-52.2-23.43-52.2-52.34 0-28.9 23.38-52.33 52.2-52.33 28.83 0 52.2 23.43 52.2 52.33zm0 0"/></symbol><symbol id="location"><path fill="none" stroke="#000" stroke-linecap="round" stroke-miterlimit="10" stroke-width="2" d="M27.419 7H6.333A3.333 3.333 0 0 0 3 10.333v33.333A3.333 3.333 0 0 0 6.333 47h33.333A3.333 3.333 0 0 0 43 43.667V23.324M6.606 47 29.46 24.146m-2.798-4.414L3 43.394M23.104 30.71 39.394 47M43 43.394 26.675 27.069"/><path fill="none" stroke="#000" stroke-linecap="round" stroke-miterlimit="10" stroke-width="2" d="M36 3c-6.075 0-11 4.925-11 11 0 7.494 7.494 10.187 10.266 20.836.191.732.127 1.264.734 1.264s.543-.532.734-1.264C39.506 24.187 47 21.494 47 14c0-6.075-4.925-11-11-11z"/><path fill="none" stroke="#000" stroke-linecap="round" stroke-miterlimit="10" stroke-width="2" d="M36 11a3 3 0 1 0 0 6 3 3 0 1 0 0-6Z"/><path d="M12.112 15.035v2.335h3.327c-.435 1.415-1.617 2.427-3.327 2.427a3.686 3.686 0 1 1 0-7.372c.916 0 1.751.336 2.396.888l1.72-1.719a6.112 6.112 0 1 0-4.116 10.628c5.344 0 6.263-4.797 5.761-7.179l-5.761-.008z"/></symbol><symbol id="vk" viewBox="0 0 512 512"><path d="M484.7 132c3.56-11.28 0-19.48-15.75-19.48h-52.37c-13.21 0-19.31 7.18-22.87 14.86 0 0-26.94 65.6-64.56 108.13-12.2 12.3-17.79 16.4-24.4 16.4-3.56 0-8.14-4.1-8.14-15.37V131.47c0-13.32-4.06-19.47-15.25-19.47H199c-8.14 0-13.22 6.15-13.22 12.3 0 12.81 18.81 15.89 20.84 51.76V254c0 16.91-3 20-9.66 20-17.79 0-61-66.11-86.92-141.44C105 117.64 99.88 112 86.66 112H33.79C18.54 112 16 119.17 16 126.86c0 13.84 17.79 83.53 82.86 175.77 43.21 63 104.72 96.86 160.13 96.86 33.56 0 37.62-7.69 37.62-20.5v-47.66c0-15.37 3.05-17.93 13.73-17.93 7.62 0 21.35 4.09 52.36 34.33C398.28 383.6 404.38 400 424.21 400h52.36c15.25 0 22.37-7.69 18.3-22.55-4.57-14.86-21.86-36.38-44.23-62-12.2-14.34-30.5-30.23-36.09-37.92-7.62-10.25-5.59-14.35 0-23.57-.51 0 63.55-91.22 70.15-122" fill-rule="evenodd" fill="#fff" class="fill-000000"/></symbol></svg>