<svg xmlns="http://www.w3.org/2000/svg" xmlns:xlink="http://www.w3.org/1999/xlink"><symbol id="css" viewBox="0 0 24 24"><g fill="none"><path d="M7.502 0h2.578v1.078h-1.5v1.078h1.5v1.078H7.502V0Zm3.093 0h2.579v.938h-1.5v.187h1.5v2.156h-2.579v-.984h1.5v-.188h-1.5V0Zm3.095 0h2.577v.938h-1.5v.187h1.5v2.156H13.69v-.984h1.5v-.188h-1.5V0Z" fill="#fff" class="fill-000000"/><path clip-rule="evenodd" d="m11.991 24-6.944-1.928L3 4.717h18L18.954 22.07 11.991 24ZM7.047 12.573l.191 2.128h7.377l-.247 2.76-2.374.642h-.002l-2.37-.64-.152-1.697H7.333l.298 3.342 4.36 1.21 4.367-1.21.532-5.964.052-.571.384-4.309H6.664l.194 2.129h8.136l-.194 2.18H7.047Z" fill="#fff" fill-rule="evenodd" class="fill-000000"/></g></symbol><symbol id="drawing" viewBox="0 0 51.1 44.2"><g style="enable-background:new 0 0 51.1 44.2"><style>.st1{fill:#4e9bd4}.st3{fill:#fff}.st11{fill:none;stroke:#000;stroke-width:.8047;stroke-miterlimit:10}</style><path d="M40.1 30.6c-4.7 0-8.5-3.8-8.5-8.5s3.8-8.5 8.5-8.5c.8 0 1.4-.9 1-1.6A21.26 21.26 0 0 0 22 .7C10.2.7.6 10.3.6 22.1c0 11.9 9.6 21.5 21.5 21.5 8.2 0 15.3-4.6 19-11.4.4-.7-.2-1.6-1-1.6zm-13.4 6.8c-1.7 0-3.1-1.4-3.1-3.1 0-1.7 1.4-3.1 3.1-3.1s3.1 1.4 3.1 3.1c0 1.8-1.4 3.1-3.1 3.1z" style="fill:#ffe4b8;stroke:#000;stroke-width:1.2554;stroke-miterlimit:10"/><ellipse cx="15.7" cy="11.4" rx="3.1" ry="4.4" style="fill:#ee3c7a"/><ellipse class="st3" cx="13.4" cy="11.4" rx="3.1" ry="4.4"/><ellipse transform="rotate(-9.46 14.337 11.44)" cx="14.3" cy="11.4" rx="4.1" ry="4.4" style="fill:#f05f88"/><ellipse cx="28.3" cy="9.1" rx="3.1" ry="4.4" style="fill:#3769a5"/><ellipse class="st3" cx="26" cy="9.1" rx="3.1" ry="4.4"/><ellipse class="st1" cx="27.3" cy="9.1" rx="3.9" ry="4.4"/><ellipse cx="10.1" cy="22.9" rx="3.1" ry="4.4" style="fill:#faaf1a"/><ellipse class="st3" cx="7.8" cy="22.9" rx="3.1" ry="4.4"/><ellipse cx="8.8" cy="22.9" rx="4" ry="4.4" style="fill:#fbd20a"/><ellipse cx="15.6" cy="33.6" rx="3.1" ry="4.4" style="fill:#f05225"/><ellipse class="st3" cx="13.3" cy="33.6" rx="3.1" ry="4.4"/><ellipse cx="14.4" cy="33.6" rx="3.8" ry="4.4" style="fill:#f16723"/><path d="M14.4 16.5c-2.8 0-5-2.3-5-5s2.3-5 5-5 5 2.3 5 5-2.2 5-5 5zm0-8.8c-2.1 0-3.8 1.7-3.8 3.8s1.7 3.8 3.8 3.8c2.1 0 3.8-1.7 3.8-3.8 0-2.1-1.7-3.8-3.8-3.8zM27.1 14.2c-2.8 0-5-2.3-5-5s2.3-5 5-5 5 2.3 5 5-2.2 5-5 5zm0-8.8c-2.1 0-3.8 1.7-3.8 3.8S25 13 27.1 13s3.8-1.7 3.8-3.8-1.7-3.8-3.8-3.8zM9 28c-2.8 0-5-2.3-5-5s2.3-5 5-5 5 2.3 5 5-2.3 5-5 5zm0-8.8c-2.1 0-3.8 1.7-3.8 3.8 0 2.1 1.7 3.8 3.8 3.8s3.8-1.7 3.8-3.8S11 19.2 9 19.2zM14.4 38.6c-2.8 0-5-2.3-5-5 0-2.8 2.3-5 5-5s5 2.3 5 5c.1 2.8-2.2 5-5 5zm0-8.8c-2.1 0-3.8 1.7-3.8 3.8 0 2.1 1.7 3.8 3.8 3.8 2.1 0 3.8-1.7 3.8-3.8 0-2.1-1.7-3.8-3.8-3.8z"/><path d="M48.5 18.5h-4.4v22.9c0 1.1.9 2 2 2h.4c1.1 0 2-.9 2-2V18.5z" style="fill:#fff;stroke:#000;stroke-width:.1046;stroke-miterlimit:10"/><path class="st11" d="M48.5 18.5h-4.4v22.9c0 1.1.9 2 2 2h.4c1.1 0 2-.9 2-2V18.5z"/><path style="fill:#c1c1c0;stroke:#000;stroke-width:.1046;stroke-miterlimit:10" d="M49.5 8.9h-6.4l1.2 9.6h4z"/><path class="st11" d="M49.5 8.9h-6.4l1.2 9.6h4z"/><path d="M46.3.8C44.5.8 42 2.2 42 4l1.2 4.9h6.4l1-4.9c0-1.8-2.5-3.2-4.3-3.2z" style="fill:#fff400;stroke:#000;stroke-width:.1046;stroke-miterlimit:10"/><path d="M46.3.8C44.5.8 42 2.2 42 4l1.2 4.9h6.4l1-4.9c0-1.8-2.5-3.2-4.3-3.2z" style="fill:none;stroke:#000;stroke-width:.8369;stroke-miterlimit:10"/><path class="st11" d="M45.3.8v3.6M47.3.8v3.6M48.9 1.6v2.8M43.7 1.6v2.8"/></g></symbol><symbol id="figma" viewBox="0 0 33.3 50"><g style="enable-background:new 0 0 33.3 50"><path d="M8.3 50c4.6 0 8.3-3.7 8.3-8.3v-8.3H8.3c-4.6 0-8.3 3.7-8.3 8.3S3.7 50 8.3 50z" style="fill:#0acf83"/><path d="M0 25c0-4.6 3.7-8.3 8.3-8.3h8.3v16.7H8.3C3.7 33.3 0 29.6 0 25z" style="fill:#a259ff"/><path d="M0 8.3C0 3.7 3.7 0 8.3 0h8.3v16.7H8.3C3.7 16.7 0 12.9 0 8.3z" style="fill:#f24e1e"/><path d="M16.7 0H25c4.6 0 8.3 3.7 8.3 8.3s-3.7 8.3-8.3 8.3h-8.3V0z" style="fill:#ff7262"/><path d="M33.3 25c0 4.6-3.7 8.3-8.3 8.3s-8.3-3.7-8.3-8.3 3.7-8.3 8.3-8.3 8.3 3.7 8.3 8.3z" style="fill:#1abcfe"/></g></symbol><symbol id="git-logo" viewBox="0 0 50 50"><g style="enable-background:new 0 0 50 50"><path d="M49.1 22.8 27.2.9C26-.3 24-.3 22.8.9L.9 22.8c-.6.6-.9 1.4-.9 2.2 0 .8.3 1.6.9 2.2l21.9 21.9c.6.6 1.4.9 2.2.9s1.6-.3 2.2-.9l21.9-21.9c.6-.6.9-1.4.9-2.2 0-.8-.3-1.6-.9-2.2z" style="fill:#ef473b"/><path d="M49.3 26.4 27.2 48.6c-.6.6-1.4.9-2.2.9s-1.6-.3-2.2-.9L.7 26.4c-.3-.3-.5-.6-.6-.9.1.6.4 1.2.9 1.6L22.9 49c.6.6 1.4.9 2.2.9s1.6-.3 2.2-.9l21.9-21.9c.5-.5.7-1 .9-1.6-.3.4-.5.7-.8.9z" style="opacity:.1;fill:#010101;enable-background:new"/><path d="M35.4 20.8c-.8 0-1.5.2-2.1.6l-4.7-4.7c.4-.6.6-1.3.6-2.1 0-2.3-1.9-4.2-4.2-4.2-.8 0-1.5.2-2.1.6l-5.1-5.1-1.5 1.5 5.1 5.1c-.4.6-.6 1.3-.6 2.1 0 1.9 1.3 3.6 3.1 4v12.8c-1.8.5-3.1 2.1-3.1 4 0 2.3 1.9 4.2 4.2 4.2s4.2-1.9 4.2-4.2c0-1.9-1.3-3.6-3.1-4V18.6c.4-.1.7-.2 1-.4l4.7 4.7c-.4.6-.6 1.3-.6 2.1 0 2.3 1.9 4.2 4.2 4.2 2.3 0 4.2-1.9 4.2-4.2s-1.9-4.2-4.2-4.2z" style="fill:#fff"/><path d="M.9 23.3 22.8 1.4C24 .2 26 .2 27.2 1.4l21.9 21.9c.5.5.8 1.2.9 1.9v-.3c0-.8-.3-1.6-.9-2.2L27.2.9C26-.3 24-.3 22.8.9L.9 22.8c-.6.6-.9 1.4-.9 2.2v.3c.1-.8.4-1.5.9-2z" style="opacity:.2;fill:#fff;enable-background:new"/><linearGradient id="a" gradientUnits="userSpaceOnUse" x1="20.144" y1="31.841" x2="38.139" y2="13.847" gradientTransform="matrix(1 0 0 -1 0 52)"><stop offset="0" style="stop-color:#010101;stop-opacity:.1"/><stop offset="1" style="stop-color:#010101;stop-opacity:0"/></linearGradient><path d="M38.6 22.4c.6.7.9 1.6.9 2.6 0 2.3-1.9 4.2-4.2 4.2-2.3 0-4.2-1.9-4.2-4.2 0-.8.2-1.5.6-2.1L27 18.2c-.3.2-.7.3-1 .4v12.8c1.8.5 3.1 2.1 3.1 4 0 2.3-1.9 4.2-4.2 4.2-1.1 0-2-.4-2.8-1.1l7.8 7.8L46.3 30l-7.7-7.6zm-10-5.7 4.7 4.7c.6-.4 1.3-.6 2.1-.6 1 0 1.9.4 2.6.9L28.3 12c.6.7.9 1.6.9 2.6 0 .8-.3 1.5-.6 2.1z" style="fill:url(#a)"/><linearGradient id="b" gradientUnits="userSpaceOnUse" x1="4.196" y1="36.709" x2="45.799" y2="17.309" gradientTransform="matrix(1 0 0 -1 0 52)"><stop offset="0" style="stop-color:#fff;stop-opacity:.2"/><stop offset="1" style="stop-color:#fff;stop-opacity:0"/></linearGradient><path d="M49.1 22.8 27.2.9C26-.3 24-.3 22.8.9L.9 22.8c-.6.6-.9 1.4-.9 2.2 0 .8.3 1.6.9 2.2l21.9 21.9c.6.6 1.4.9 2.2.9s1.6-.3 2.2-.9l21.9-21.9c.6-.6.9-1.4.9-2.2 0-.8-.3-1.6-.9-2.2z" style="fill:url(#b)"/></g></symbol><symbol id="git" viewBox="0 0 512 512"><path clip-rule="evenodd" d="M296.133 354.174c49.885-5.891 102.942-24.029 102.942-110.192 0-24.49-8.624-44.448-22.67-59.869 2.266-5.89 9.515-28.114-2.734-58.947 0 0-18.139-5.898-60.759 22.669-18.139-4.983-38.09-8.163-56.682-8.163-19.053 0-39.011 3.18-56.697 8.163-43.082-28.567-61.22-22.669-61.22-22.669-12.241 30.833-4.983 53.057-2.718 58.947-14.061 15.42-22.677 35.379-22.677 59.869 0 86.163 53.057 104.301 102.942 110.192-6.344 5.452-12.241 15.873-14.507 30.387-12.702 5.438-45.808 15.873-65.758-18.592 0 0-11.795-21.31-34.012-22.669 0 0-22.224-.453-1.813 13.592 0 0 14.96 6.812 24.943 32.653 0 0 13.6 43.089 76.179 29.48v38.543c0 5.906-4.53 12.702-15.865 10.89C96.139 438.977 32.2 354.626 32.2 255.77c0-123.807 100.216-224.022 224.03-224.022 123.347 0 224.023 100.216 223.57 224.022 0 98.856-63.946 182.754-152.828 212.688-11.342 2.266-15.873-4.53-15.873-10.89V395.45c.001-20.873-6.811-34.465-14.966-41.276zM512 256.23C512 114.73 397.263 0 256.23 0 114.73 0 0 114.73 0 256.23 0 397.263 114.73 512 256.23 512 397.263 512 512 397.263 512 256.23z" fill="#fff" fill-rule="evenodd" class="fill-0d2636"/></symbol><symbol id="gulp" viewBox="0 0 22.5 50"><g style="enable-background:new 0 0 22.5 50"><path d="m17.8 40.5 1.3-2.3s-3 1.2-8 1.2-8-1.2-8-1.2l1.5 2.5.5 7.8c0 .8 2.7 1.5 6.1 1.5s6.1-.7 6.1-1.5l.5-8zm1.3-14.7c-1.6.1-2.4 1.9-3.2 3.8-.3.7-1.3 3.6-2 3.3-.7-.4.9-2.8 1.3-4.2-.5.4-2.3 1.8-2.8.4-.7.7-2.4 1-2.2-.7-.4.7-1.3 1.7-2.4 1.3-1.4-.5.8-5 1.4-4.8.6.3-.1 1.2-.3 1.7-.4.9-.8 2-.5 2.2.5.4 1.9-1.5 1.9-1.5.3-.3 1-2.6 1.6-2.3.6.3-1.5 3.2-.7 3.8.2.1.8-.1 1.2-.5.2-.2.2-.9 1-2.9s1.6-4.5 2.2-4.3c.6.2.1 1.5-.1 2-1 2.2-2.6 5.9-1.9 5.6.8-.3 1.2-.3 2-1.2.8-.9.7-2.4 1.2-2.4s.4.5.3.9c.5-.6 2.4-1.8 2.8-.6.5 1.4-2.7 3.5-1.9 3.4.8-.1 2.1-.9 2.6-1.7l1.5-13.5s-1.5 1.2-11.2 1.2S0 13.6 0 13.6L1.3 26c.7-2 2.3-5.9 4.8-5.7 1.2.1 2.7 2.3 1.4 2.4-.6 0-.6-1.1-1.3-1.3-.5-.1-1.2.3-1.6.7-.8.8-2.7 4.2-2.5 5.8.3 2.1 2.9-.7 3.4-1.6.3-.6.5-2.4 1.2-2.2.7.2-.1 2-.6 3.6-.6 1.8-.8 3.7-1.5 3.5s.4-2.6.4-3c-.7.6-1.8 2.1-3.4 1.4l.8 7.7S4.5 39 10.9 39s8.6-1.7 8.6-1.7l1-8.9c-.8.8-3.4 2.2-3.5.6-.1-1.3 2.8-3.1 2-3.2 0 .1.1 0 .1 0zm3.3-24.4-5.5 5.8-1 4c3.9.2 6.6.8 6.6 1.4 0 .9-5 1.6-11.2 1.6S0 13.5 0 12.6c0-.9 5-1.6 11.2-1.6h2.6L15 6.3 20.9.1c.1-.2.6 0 1 .3s.6.7.5 1zm-8 12.1s-1.1 0-1.3-.2c0-.1-.1-.1-.1-.2s.1-.2.2-.2l.1.2h-.1c0 .1.7.1 1.2.1s1.1 0 1.1-.1l-.1-.1.1-.1c.1 0 .2.1.2.3s-.3.3-.5.3c-.2-.1-.8 0-.8 0z" style="fill:#fff"/></g></symbol><symbol id="html" viewBox="0 0 56.693 56.693"><path d="M16.356 9.799h2.026v2.219h2.216V5.391h-2.216v2.19h-2.026v-2.19h-2.215v6.627h2.215zm7.154 2.219h2.215V7.59h1.949V5.391h-6.113V7.59h1.949zm7.302-3.283 1.526 2.355h.037l1.523-2.355v3.283h2.207V5.391h-2.31l-1.42 2.332-1.42-2.332h-2.309v6.627h2.166zm11.725 1.094h-3.115V5.391h-2.215v6.627h5.33zm-31.588 5.097 3.168 35.532 14.221 3.947L42.57 50.46l3.174-35.534H10.949zm27.922 11.62H22.194l.398 4.463h15.883L37.28 44.392l-8.934 2.475-.006.002-8.928-2.477-.623-7h4.374l.324 3.631 4.854 1.312.006-.002 4.859-1.312.506-5.652H18.608L17.431 22.19H39.26l-.389 4.356z" fill="#fff" class="fill-000000"/></symbol><symbol id="illustrator" viewBox="0 0 50 48.3"><path fill="none" d="M0 0h50v48.3H0z"/><path fill="#ffaa2b" d="m17.9 29.3-2.1 6.9h-4.6L19 11.8h5.7l7.9 24.4h-4.8l-2.2-6.9h-7.7zm7-3.3L23 20a39 39 0 0 1-1.2-4.6h-.1c-.4 1.4-.7 3.1-1.2 4.6l-1.9 6h6.3zm14.2-12.3c0 1.3-1 2.4-2.5 2.4s-2.5-1-2.5-2.4 1-2.4 2.5-2.4c1.6 0 2.5 1 2.5 2.4zm-4.7 22.5V18.6h4.5v17.6h-4.5z"/></symbol><symbol id="instagram" viewBox="0 0 256 256"><path fill="none" d="M0 0h256v256H0z"/><circle cx="128" cy="128" fill="none" r="40" stroke="#fff" stroke-miterlimit="10" stroke-width="16" class="stroke-000000"/><rect fill="none" height="184" rx="48" stroke="#fff" stroke-linecap="round" stroke-linejoin="round" stroke-width="16" width="184" x="36" y="36" class="stroke-000000"/><circle cx="180" cy="76" r="12" fill="#fff" class="fill-000000"/></symbol><symbol id="js" viewBox="0 0 49.9 50"><g style="enable-background:new 0 0 49.9 50"><style>.st1{fill:#323330}</style><circle cx="24.9" cy="25" r="25" style="fill:none"/><path class="st1" d="M21.3 29.8c0 5.2-3.1 7.5-7.4 7.5-4 0-6.2-2-7.5-4.5l4-2.4c.7 1.4 1.5 2.5 3.2 2.5 1.6 0 2.6-.6 2.6-3.2v-17h5l.1 17.1zM33.1 37.3c-4.7 0-7.6-2.2-9.1-5.1l4-2.3c1.1 1.7 2.4 3.1 4.9 3.1 2 0 3.4-1.1 3.4-2.4 0-1.7-1.4-2.3-3.6-3.3l-1.3-.4c-3.6-1.5-5.9-3.5-5.9-7.5 0-3.7 2.9-6.6 7.3-6.6 3.2 0 5.4 1.1 7.1 4L36 19.2c-.8-1.5-1.8-2.1-3.2-2.1-1.5 0-2.3 1-2.3 2.1 0 1.5 1 2.1 3.1 3.1l1.3.5c4.2 1.8 6.6 3.7 6.6 7.8-.3 4.2-3.7 6.7-8.4 6.7z"/></g></symbol><symbol id="less" viewBox="0 0 50 21.4"><g style="enable-background:new 0 0 50 21.4"><path d="M47.9 7.8c0-1.6.3-2.5.3-4.3C48.2.8 47.2 0 45 0h-1.6v1.9h.5c1.1 0 1.4.4 1.4 1.7l-.1 4c0 1.9.6 2.6 1.8 2.9v.1c-1.2.3-1.8 1-1.8 2.9l.1 4c0 1.4-.3 1.8-1.4 1.8h-.5v2H45c2.2 0 3.2-.9 3.2-3.5 0-1.8-.3-2.7-.3-4.3 0-.9.5-1.8 2.1-1.8V9.6c-1.6 0-2.1-.9-2.1-1.8zm-8.3 2.5c-1.2-.5-2.4-.8-2.4-1.6 0-.6.5-1 1.4-1 .9 0 1.7.4 2.6 1l1.6-2.2c-1-.8-2.4-1.6-4.3-1.6-2.8 0-4.7 1.6-4.7 3.9 0 2 1.8 3 3.2 3.6 1.3.5 2.5.9 2.5 1.7 0 .6-.5 1-1.6 1-1 0-2.1-.4-3.2-1.3l-1.6 2.4a8 8 0 0 0 4.7 1.7c3.3 0 5-1.7 5-4s-1.6-3.1-3.2-3.6zm-28 4.6c-.3 0-.7-.3-.7-1V0H5.1C2.9 0 1.9.9 1.9 3.5c0 1.8.3 2.8.3 4.3 0 .9-.5 1.8-2.1 1.8v2.1c1.6 0 2.1.9 2.1 1.8 0 1.5-.3 2.4-.3 4.2 0 2.7 1 3.5 3.2 3.5h1.6v-1.9h-.5c-1 0-1.4-.4-1.4-1.8l.1-4c0-1.9-.6-2.6-1.8-2.9v-.1c1.2-.3 1.8-1 1.8-2.9l-.1-4c0-1.3.3-1.7 1.4-1.7h1.1v11.8c0 2.5.9 4.1 3.4 4.1.8 0 1.4-.1 1.8-.3l-.4-2.7-.5.1zm18.1-4.6c-1.3-.5-2.4-.8-2.4-1.6 0-.6.5-1 1.4-1 .9 0 1.7.4 2.6 1l1.6-2.2c-1-.8-2.4-1.6-4.3-1.6-2.8 0-4.7 1.6-4.7 3.9 0 2 1.8 3 3.2 3.6 1.3.5 2.5.9 2.5 1.7 0 .6-.5 1-1.6 1-1 0-2.1-.4-3.2-1.3l-1.6 2.4a8 8 0 0 0 4.7 1.7c3.3 0 5-1.7 5-4 .1-2.1-1.6-3.1-3.2-3.6zM17.6 4.9c-3 0-5.9 2.5-5.8 6.4 0 4.1 2.7 6.4 6.2 6.4a8 8 0 0 0 4.4-1.4l-1.2-2.2c-.9.5-1.8.8-2.7.8-1.6 0-2.9-.8-3.2-2.7h7.4l.1-1.5c0-3.2-1.8-5.8-5.2-5.8zm-2.4 5.2c.3-1.6 1.2-2.4 2.4-2.4 1.5 0 2.1 1 2.1 2.4h-4.5z" style="fill:#fff"/></g></symbol><symbol id="linkedin" viewBox="0 0 512 512"><path d="M17.4 166.28h106.72v328.97H17.4zm397.39 3.86c-1.13-.36-2.2-.74-3.4-1.08-1.44-.33-2.86-.6-4.33-.83a95.2 95.2 0 0 0-19.14-1.95c-62.21 0-101.68 45.37-114.68 62.9v-62.9H166.53v328.97h106.71V315.81s80.65-112.63 114.68-29.9v209.34H494.6v-222c0-49.7-33.97-91.12-79.81-103.11zm-293-101.06c0 28.91-23.37 52.34-52.2 52.34-28.82 0-52.2-23.43-52.2-52.34 0-28.9 23.38-52.33 52.2-52.33 28.83 0 52.2 23.43 52.2 52.33zm0 0"/></symbol><symbol id="location"><path fill="none" stroke="#000" stroke-linecap="round" stroke-miterlimit="10" stroke-width="2" d="M27.419 7H6.333A3.333 3.333 0 0 0 3 10.333v33.333A3.333 3.333 0 0 0 6.333 47h33.333A3.333 3.333 0 0 0 43 43.667V23.324M6.606 47 29.46 24.146m-2.798-4.414L3 43.394M23.104 30.71 39.394 47M43 43.394 26.675 27.069"/><path fill="none" stroke="#000" stroke-linecap="round" stroke-miterlimit="10" stroke-width="2" d="M36 3c-6.075 0-11 4.925-11 11 0 7.494 7.494 10.187 10.266 20.836.191.732.127 1.264.734 1.264s.543-.532.734-1.264C39.506 24.187 47 21.494 47 14c0-6.075-4.925-11-11-11z"/><path fill="none" stroke="#000" stroke-linecap="round" stroke-miterlimit="10" stroke-width="2" d="M36 11a3 3 0 1 0 0 6 3 3 0 1 0 0-6Z"/><path d="M12.112 15.035v2.335h3.327c-.435 1.415-1.617 2.427-3.327 2.427a3.686 3.686 0 1 1 0-7.372c.916 0 1.751.336 2.396.888l1.72-1.719a6.112 6.112 0 1 0-4.116 10.628c5.344 0 6.263-4.797 5.761-7.179l-5.761-.008z"/></symbol><symbol id="npm" viewBox="0 0 50 50"><g style="enable-background:new 0 0 50 50"><path d="M0 14.4v16.7h13.9v2.8H25v-2.8h25V14.4H0zm13.9 13.9h-2.8V20H8.3v8.3H2.8V17.2h11.1v11.1zm8.3 0v2.8h-5.6V17.2h11.1v11.1h-5.5zm25 0h-2.8V20h-2.8v8.3h-2.8V20H36v8.3h-5.6V17.2h16.7c.1 0 .1 11.1.1 11.1zm-25-8.3H25v5.6h-2.8V20z" style="fill:#fff"/></g></symbol><symbol id="photoshop" viewBox="0 0 50 50"><path fill="none" d="M0 0h50v50H0z"/><path fill="#4fc7ec" d="M9.9 11.8c0-.2 0-.3.2-.3 1.3 0 3.9-.1 6.4-.1 6.7 0 9.2 3.9 9.3 8.5 0 6.3-4.7 8.7-9.7 8.7H14v9c0 .2-.1.3-.2.3h-3.6c-.2 0-.2-.1-.2-.3l-.1-25.8zm4.1 13c.3 0 .8.1 2.2.1 2.7 0 5.3-.8 5.3-4.7 0-3.2-1.7-4.8-4.9-4.8-1.3 0-2.3 0-2.6.1v9.3zm20.3-2.9c-1.6 0-2.1 1-2.1 1.8 0 1 .4 1.5 3 2.7 3.5 1.7 4.9 3.1 4.9 6 0 4-2.6 6.2-6.3 6.2-1.8 0-4-.2-5.4-1.2-.1-.1-.2-.2-.2-.4v-3.6c0-.2.1-.3.2-.2 1.7 1.3 3.7 1.7 5.4 1.7 1.5 0 2.1-1 2.1-1.9 0-1-.4-1.6-2.8-2.8-3.5-1.7-4.9-3.1-4.9-6 0-3.2 2.4-5.9 6.4-5.9 2 0 3.5.1 4.4.7.2.2.2.3.2.5v3.3c0 .2-.1.4-.3.2-1.1-.9-2.8-1.1-4.6-1.1z"/></symbol><symbol id="sass" viewBox="0 0 50 37.5"><g style="enable-background:new 0 0 50 37.5"><path d="M43.1 21.6c-1.7 0-3.3.4-4.5 1.1-.5-.9-.9-1.7-1-2.3-.1-.7-.2-1.1-.1-2s.6-2 .6-2.1-.1-.5-1.1-.5-1.9.2-2 .5-.3.9-.4 1.5c-.2.9-2 4.2-3.1 5.9-.3-.7-.6-1.3-.7-1.7-.1-.7-.2-1.1-.1-2 .1-.8.6-2 .6-2.1s-.1-.5-1.1-.5-1.9.2-2 .5-.2.9-.4 1.5-2.6 6-3.3 7.5c-.3.7-.6 1.3-.8 1.7v.1c-.2.3-.3.5-.3.5-.1.2-.3.5-.4.5s-.2-.7 0-1.6c.4-1.9 1.2-4.8 1.2-4.9 0-.1.2-.6-.6-.8-.7-.3-1 .2-1 .2l-.1.2S23.3 19 21 19c-1.4 0-3.4 1.6-4.4 3-.6.3-1.9 1.1-3.4 1.8-.5.3-1.1.6-1.6.9l-.1-.1c-2.8-3-8-5.1-7.7-9.1.1-1.5.6-5.3 9.9-10 7.7-3.8 13.8-2.7 14.9-.4 1.5 3.3-3.3 9.5-11.2 10.4-3 .3-4.6-.8-5-1.3s-.5-.5-.6-.4c-.3.1-.1.5 0 .8.2.6 1.2 1.7 2.9 2.3 1.5.5 5 .7 9.3-.9 4.8-1.9 8.6-7 7.5-11.4C30.2.2 22.9-1.3 16 1.2 11.9 2.7 7.4 5 4.2 7.9c-3.8 3.6-4.4 6.7-4.2 8 .9 4.6 7.2 7.6 9.8 9.8-.1.1-.2.1-.3.2-1.3.6-6.1 3.2-7.3 5.8-1.4 3 .2 5.2 1.3 5.5 3.3.9 6.6-.7 8.4-3.4s1.6-6.2.7-7.8v-.1c.3-.2.7-.4 1-.6.6-.4 1.3-.7 1.8-1-.3.8-.5 1.9-.6 3.3-.1 1.7.6 3.9 1.5 4.8.4.4.9.4 1.2.4 1.1 0 1.6-.9 2.1-2 .7-1.3 1.3-2.8 1.3-2.8s-.9 4.2 1.1 4.2c.7 0 1.5-.9 1.8-1.4l.1-.1c.1-.1.1-.2.1-.2.3-.5.9-1.7 1.9-3.6 1.3-2.5 2.5-5.6 2.5-5.6s.1.8.5 2c.2.7.7 1.6 1 2.3-.3.4-.5.6-.5.6-.2.3-.5.6-.8 1-1 1.2-2.2 2.5-2.3 2.9-.2.5-.1.8.2 1.1.3.2.7.2 1.2.2.9-.1 1.5-.3 1.8-.4.5-.2 1.1-.4 1.6-.8 1-.7 1.6-1.8 1.5-3.1 0-.7-.3-1.5-.6-2.2.1-.1.2-.3.3-.4 1.5-2.3 2.7-4.7 2.7-4.7s.1.8.5 2c.2.6.6 1.3.9 2-1.5 1.2-2.3 2.5-2.7 3.4-.6 1.7-.1 2.4.7 2.6.4.1.9-.1 1.3-.3.5-.2 1.1-.4 1.7-.9 1-.7 1.9-1.7 1.9-3.1 0-.6-.2-1.2-.4-1.8 1.2-.5 2.8-.8 4.8-.6 4.3.5 5.2 3.2 5 4.4-.2 1.1-1.1 1.8-1.4 2-.3.2-.4.3-.4.4 0 .2.2.2.4.2.4-.1 2.3-.9 2.4-3 .4-2.6-2.1-5.6-6.6-5.5zM9.5 32.9c-1.4 1.6-3.5 2.2-4.3 1.7-.9-.6-.6-2.9 1.2-4.6 1.1-1 2.5-2 3.4-2.5.2-.1.5-.3.9-.5.1 0 .1-.1.1-.1.1 0 .1-.1.2-.1.7 2.3 0 4.4-1.5 6.1zM20 25.7c-.5 1.2-1.6 4.4-2.2 4.2-.5-.1-.9-2.5-.1-4.9.4-1.2 1.2-2.6 1.7-3.1.8-.9 1.7-1.2 1.9-.8.3.5-1 3.9-1.3 4.6zm8.7 4.2c-.2.1-.4.1-.5.1-.1 0 .1-.2.1-.2s1.1-1.2 1.5-1.7c.2-.3.5-.7.8-1.1v.1c0 1.4-1.3 2.4-1.9 2.8zm6.7-1.6c-.2-.1-.1-.5.4-1.6.2-.4.7-1.2 1.5-1.9.1.3.2.6.1.8 0 1.8-1.3 2.5-2 2.7z" style="fill:#fff"/></g></symbol><symbol id="vk" viewBox="0 0 512 512"><path d="M484.7 132c3.56-11.28 0-19.48-15.75-19.48h-52.37c-13.21 0-19.31 7.18-22.87 14.86 0 0-26.94 65.6-64.56 108.13-12.2 12.3-17.79 16.4-24.4 16.4-3.56 0-8.14-4.1-8.14-15.37V131.47c0-13.32-4.06-19.47-15.25-19.47H199c-8.14 0-13.22 6.15-13.22 12.3 0 12.81 18.81 15.89 20.84 51.76V254c0 16.91-3 20-9.66 20-17.79 0-61-66.11-86.92-141.44C105 117.64 99.88 112 86.66 112H33.79C18.54 112 16 119.17 16 126.86c0 13.84 17.79 83.53 82.86 175.77 43.21 63 104.72 96.86 160.13 96.86 33.56 0 37.62-7.69 37.62-20.5v-47.66c0-15.37 3.05-17.93 13.73-17.93 7.62 0 21.35 4.09 52.36 34.33C398.28 383.6 404.38 400 424.21 400h52.36c15.25 0 22.37-7.69 18.3-22.55-4.57-14.86-21.86-36.38-44.23-62-12.2-14.34-30.5-30.23-36.09-37.92-7.62-10.25-5.59-14.35 0-23.57-.51 0 63.55-91.22 70.15-122" fill-rule="evenodd" fill="#fff" class="fill-000000"/></symbol></svg>